<svg version="1.1" id="Blue-Heart--Streamline-Noto-Emoji" xmlns="http://www.w3.org/2000/svg" xmlns:xlink="http://www.w3.org/1999/xlink" x="0" y="0" viewBox="0 0 32 32" xml:space="preserve" enable-background="new 0 0 128 128" height="32" width="32">
  <desc>
    Blue Heart Streamline Emoji: https://streamlinehq.com
  </desc>
  <g>
    <path d="M23.4975 2.2425c-5.4775 0 -7.49 5.5975 -7.49 5.5975s-1.985 -5.5975 -7.5 -5.5975c-4.145 0 -8.87 3.285 -7.125 10.7525 1.745 7.4675 14.64 16.77 14.64 16.77s12.8475 -9.3025 14.595 -16.77c1.745 -7.4675 -2.64 -10.7525 -7.12 -10.7525z" fill="#1976D2" stroke-width="0.25"></path>
    <g>
      <path d="M7.6625 2.8c4.3 0 6.435 4.6225 7.125 6.495 0.0975 0.2675 0.47 0.275 0.5825 0.015L16 7.8375C15.1125 5.0025 12.6725 2.2425 8.5075 2.2425c-1.725 0 -3.5475 0.57 -4.965 1.7725 1.2525 -0.8225 2.72 -1.215 4.12 -1.215z" fill="#0D47A1" stroke-width="0.25"></path>
      <path d="M23.4975 2.2425c-1.3225 0 -2.4425 0.385 -3.3825 0.9625 0.66 -0.255 1.39 -0.405 2.2 -0.405 4.0525 0 7.68 3.0725 6.0425 10.175 -1.405 6.0975 -9.615 13.495 -12.1225 16.3175 -0.16 0.18 -0.215 0.47 -0.215 0.47s12.8475 -9.3025 14.595 -16.77c1.7475 -7.465 -2.9725 -10.75 -7.1175 -10.75z" fill="#0D47A1" stroke-width="0.25"></path>
    </g>
    <g opacity=".3">
      <g>
        <g>
          <path d="M4.26 6.205c0.9375 -1.17 2.6125 -2.1375 4.0325 -1.0225 0.7675 0.6025 0.4325 1.8375 -0.255 2.3575 -1 0.76 -1.87 1.2175 -2.48 2.4075 -0.365 0.715 -0.585 1.4975 -0.6975 2.295 -0.045 0.315 -0.4575 0.3925 -0.6125 0.115 -1.055 -1.87 -1.355 -4.445 0.0125 -6.1525z" fill="#FFFFFF" stroke-width="0.25"></path>
        </g>
      </g>
    </g>
    <path d="M19.29 8.665c-0.44 0 -0.75 -0.425 -0.59 -0.835 0.2975 -0.755 0.6825 -1.485 1.145 -2.135 0.685 -0.96 1.9875 -1.52 2.8125 -0.9375 0.845 0.595 0.735 1.785 0.1425 2.36 -1.2725 1.2325 -2.8775 1.5475 -3.51 1.5475z" opacity=".3" fill="#FFFFFF" stroke-width="0.25"></path>
  </g>
</svg>